<svg id="Capa_1" enable-background="new 0 0 511.999 511.999" height="512" viewBox="0 0 511.999 511.999" width="512" xmlns="http://www.w3.org/2000/svg"><g clip-rule="evenodd" fill-rule="evenodd"><path d="m248.332 509.781c-36.793-15.363-193.126-99.043-195.649-411.509-.057-7.455 1.135-7.37 8.107-6.973 28.859 1.701 127.957.369 190.292-88.186 2.835-3.997 6.859-4.252 9.751-.142 62.165 88.47 160.98 90 190.15 88.356 4.535-.255 8.361 2.749 8.334 7.483-2.693 311.898-158.714 395.522-195.565 410.941-7.171 3.006-8.304 2.978-15.42.03z" fill="#477b9e"/><path d="m248.332 509.781c-2.069-.878-4.535-1.956-7.284-3.26 46.885-21.826 185.473-110.353 187.995-395.436.028-4.564-3.8-7.512-8.335-7.256-28.545 1.559-123.677.17-186.039-80.222 5.698-6.265 11.197-13.067 16.413-20.494 2.835-3.997 6.859-4.252 9.751-.142 62.165 88.47 160.98 90 190.15 88.356 4.535-.255 8.361 2.749 8.334 7.483-2.693 311.898-158.714 395.522-195.565 410.941-7.171 3.006-8.304 2.978-15.42.03z" fill="#365e7d"/><path d="m271.039 467.744c23.158-13.777 43.795-32.429 61.059-53.009 63.523-75.714 86.854-181.617 91.842-280.264.312-5.925-2.183-8.872-8.135-9.411-13.664-1.219-27.1-3.401-38.892-6.123-44.476-10.29-83.425-31.153-114.861-61.738-4.932-4.82-6.973-4.99-11.99-.086-31.436 30.643-70.442 51.534-114.946 61.824-11.82 2.75-25.285 4.904-38.977 6.123-5.669.511-8.361 3.288-8.078 9.185 4.904 97.513 27.694 201.97 89.461 277.599 17.15 21.005 37.674 40.025 60.805 54.312 17.291 10.63 15.59 11.764 32.712 1.588z" fill="#bed8fb"/><path d="m271.039 467.744c23.158-13.777 43.795-32.429 61.059-53.009 63.523-75.714 86.854-181.617 91.842-280.264.312-5.925-2.183-8.872-8.135-9.411-13.664-1.219-27.1-3.401-38.892-6.123-44.476-10.29-83.425-31.153-114.861-61.738-4.932-4.82-6.973-4.99-11.99-.086-4.876 4.734-9.949 9.27-15.166 13.55 30.87 28.233 68.713 47.566 111.715 57.289 11.792 2.664 25.228 4.762 38.92 5.952 5.952.511 8.419 3.402 8.136 9.156-5.018 96.152-28.318 199.391-91.844 273.206-17.206 19.984-37.786 38.098-60.832 51.534 14.485 9.071 13.862 9.581 30.048-.056z" fill="#9dc6fb"/><path d="m193.481 352.174c-35.518-36.284-42.293-80.732-20.721-126.881 1.389-2.977 8.504-19.077 11.537-18.765 2.154.227 5.216 7.597 6.491 9.694 1.7 2.664 14.287 21.912 17.065 19.871 1.53-1.105.851-7.54.907-9.554.227-7.738 1.814-17.093 3.486-24.689 2.551-11.282 6.435-22.365 12.076-32.457 10.572-18.396 23.612-30.047 43.001-38.552 1.701-.736 10.318-5.158 10.97-1.87.341 1.729-2.295 6.576-3.032 8.617-3.147 8.9-5.103 20.154-4.933 29.622.283 11.226 3.373 21.118 10.913 29.594 12.983 15.421 17.292 32.089 14.117 51.903-1.786 11.026 3.345 4.903 7.058.283 6.832-8.532 11.424-15.874 14.458-26.617 1.475-5.698 1.928-8.447 1.843-14.315-.085-8.985 1.983-7.795 6.321-1.275 10.885 16.271 18.822 31.38 23.358 50.599 9.1 38.778-1.389 74.325-32.684 100.433-8.108 6.746-17.179 12.273-26.817 16.186-10.629 4.337-21.968 3.26-33.448 3.231-9.779 0-18.34 2.098-26.136-.595-13.321-4.564-24.462-12.87-35.83-24.463z" fill="#e6646e"/><path d="m242.409 146.518c7.029-6.321 15.165-11.395 24.916-15.676 1.701-.736 10.318-5.158 10.97-1.87.341 1.729-2.295 6.576-3.032 8.617-3.147 8.9-5.103 20.154-4.933 29.622.283 11.226 3.373 21.118 10.913 29.594 12.983 15.421 17.292 32.089 14.117 51.903-.596 3.6-.426 5.357.17 5.952-.936 1.39-2.637 2.467-5.925 3.572-5.584 1.871-17.376-2.58-15.902-12.699 2.892-19.871-9.779-33.308-22.733-48.729-7.569-8.476-10.63-18.368-10.942-29.594-.114-6.518.793-13.86 2.381-20.692zm68.797 89.746c2.325-4.167 4.168-8.618 5.67-13.89 1.475-5.698 1.928-8.447 1.843-14.315-.085-8.985 1.983-7.795 6.321-1.275 10.885 16.271 18.822 31.38 23.358 50.599 9.1 38.778-1.389 74.325-32.684 100.433-8.108 6.746-17.179 12.273-26.845 16.214-15.449 6.293-31.578 6.435-48.02 3.486 16.583-2.947 31.436-8.759 44.561-19.7 1.758-1.446 3.43-2.948 5.074-4.45 27.355-25.654 36.228-59.358 27.61-95.982-1.758-7.57-4.083-14.515-6.888-21.12z" fill="#dc4655"/><path d="m288.869 374.029c-10.631 4.309-21.94 6.689-33.421 6.689-9.779 0-18.34-1.389-26.136-4.081-4.592-8.107-7.37-18.426-7.965-25.711-2.551-35.915 12.132-61.144 46.771-72.937 1.843-.623 7.427-2.636 6.889 1.163-.284 1.955-1.871 5.272-2.439 7.568-3.345 13.097-3.458 29.424 5.782 40.195 11.651 13.212 15.422 33.479 10.519 47.114z" fill="#ffe17d"/><path d="m288.869 374.029c-9.582 3.884-19.729 6.208-30.048 6.633 4.536-14.654.681-35.972-10.743-49.946-8.051-10.092-9.014-24.689-6.916-37.588 7.029-6.321 15.986-11.396 26.957-15.138 1.843-.623 7.427-2.636 6.889 1.163-.284 1.955-1.871 5.272-2.439 7.568-3.345 13.097-3.458 29.424 5.782 40.195 11.65 13.211 15.421 33.507 10.518 47.113z" fill="#ffc369"/></g></svg>